<svg width="16" height="16" viewBox="0 0 16 16" fill="none" xmlns="http://www.w3.org/2000/svg">
<path d="M9.13863 16C9.35551 16 9.54282 15.9205 9.70055 15.7616C9.85829 15.6027 9.93715 15.414 9.93715 15.1955V9.77281H15.2015C15.4184 9.77281 15.6057 9.69336 15.7634 9.53445C15.9211 9.37554 16 9.18684 16 8.96834V7.00186C16 6.78336 15.9211 6.59466 15.7634 6.43575C15.6057 6.27685 15.4184 6.19739 15.2015 6.19739H9.93715V0.804469C9.93715 0.585972 9.85829 0.397269 9.70055 0.238361C9.54282 0.0794538 9.35551 0 9.13863 0H6.89094C6.67406 0 6.48675 0.0794538 6.32902 0.238361C6.17129 0.397269 6.09242 0.585972 6.09242 0.804469V6.19739H0.798521C0.581639 6.19739 0.394331 6.27685 0.236599 6.43575C0.0788663 6.59466 0 6.78336 0 7.00186V8.96834C0 9.18684 0.0788663 9.37554 0.236599 9.53445C0.394331 9.69336 0.581639 9.77281 0.798521 9.77281H6.09242V15.1955C6.09242 15.414 6.17129 15.6027 6.32902 15.7616C6.48675 15.9205 6.67406 16 6.89094 16H9.13863Z" fill="#1C1C1C" fill-opacity="0.5"/>
</svg>
